<mxfile host="app.diagrams.net" agent="Mozilla/5.0 (Macintosh; Intel Mac OS X 10_15_7) AppleWebKit/537.36 (KHTML, like Gecko) Chrome/136.0.0.0 Safari/537.36" version="27.0.6">
  <diagram name="Page-1" id="a64cZJEM1JARjmPZ4o7t">
    <mxGraphModel dx="1839" dy="1973" grid="1" gridSize="10" guides="1" tooltips="1" connect="1" arrows="1" fold="1" page="1" pageScale="1" pageWidth="827" pageHeight="1169" math="0" shadow="0">
      <root>
        <mxCell id="0" />
        <mxCell id="1" parent="0" />
        <mxCell id="hUhZdlzNuwEwYxPV-n_X-53" value="" style="rounded=0;whiteSpace=wrap;html=1;fillColor=#d0cee2;strokeColor=#56517e;" vertex="1" parent="1">
          <mxGeometry x="29.51" y="457.5" width="770.49" height="355" as="geometry" />
        </mxCell>
        <mxCell id="hUhZdlzNuwEwYxPV-n_X-9" style="edgeStyle=orthogonalEdgeStyle;rounded=0;orthogonalLoop=1;jettySize=auto;html=1;fillColor=#d0cee2;strokeColor=#56517e;" edge="1" parent="1">
          <mxGeometry relative="1" as="geometry">
            <mxPoint x="-60" y="-130" as="sourcePoint" />
            <mxPoint x="29.50999999999999" y="-71" as="targetPoint" />
          </mxGeometry>
        </mxCell>
        <mxCell id="hUhZdlzNuwEwYxPV-n_X-50" value="" style="rounded=0;whiteSpace=wrap;html=1;fillColor=#d0cee2;strokeColor=#56517e;" vertex="1" parent="1">
          <mxGeometry x="29.51" y="85" width="490.49" height="355" as="geometry" />
        </mxCell>
        <mxCell id="hUhZdlzNuwEwYxPV-n_X-52" style="edgeStyle=orthogonalEdgeStyle;rounded=0;orthogonalLoop=1;jettySize=auto;html=1;" edge="1" parent="1" source="hUhZdlzNuwEwYxPV-n_X-2" target="hUhZdlzNuwEwYxPV-n_X-6">
          <mxGeometry relative="1" as="geometry" />
        </mxCell>
        <mxCell id="hUhZdlzNuwEwYxPV-n_X-2" value="&lt;div&gt;&lt;br&gt;&lt;/div&gt;&lt;div&gt;&lt;br&gt;&lt;/div&gt;" style="points=[];aspect=fixed;html=1;align=center;shadow=0;dashed=0;fillColor=#FF6A00;strokeColor=none;shape=mxgraph.alibaba_cloud.dns_domain_name_system;" vertex="1" parent="1">
          <mxGeometry x="80" y="170" width="30.49" height="30" as="geometry" />
        </mxCell>
        <mxCell id="hUhZdlzNuwEwYxPV-n_X-3" value="api.schema.io" style="text;strokeColor=none;align=center;fillColor=none;html=1;verticalAlign=middle;whiteSpace=wrap;rounded=0;" vertex="1" parent="1">
          <mxGeometry x="65.24000000000001" y="200" width="60" height="30" as="geometry" />
        </mxCell>
        <mxCell id="hUhZdlzNuwEwYxPV-n_X-8" style="edgeStyle=orthogonalEdgeStyle;rounded=0;orthogonalLoop=1;jettySize=auto;html=1;" edge="1" parent="1" source="hUhZdlzNuwEwYxPV-n_X-4" target="hUhZdlzNuwEwYxPV-n_X-6">
          <mxGeometry relative="1" as="geometry" />
        </mxCell>
        <mxCell id="hUhZdlzNuwEwYxPV-n_X-4" value="&lt;div&gt;&lt;br&gt;&lt;/div&gt;&lt;div&gt;&lt;br&gt;&lt;/div&gt;" style="points=[];aspect=fixed;html=1;align=center;shadow=0;dashed=0;fillColor=#FF6A00;strokeColor=none;shape=mxgraph.alibaba_cloud.dns_domain_name_system;" vertex="1" parent="1">
          <mxGeometry x="79.99999999999999" y="360" width="30.49" height="30" as="geometry" />
        </mxCell>
        <mxCell id="hUhZdlzNuwEwYxPV-n_X-5" value="api.swell.store" style="text;strokeColor=none;align=center;fillColor=none;html=1;verticalAlign=middle;whiteSpace=wrap;rounded=0;" vertex="1" parent="1">
          <mxGeometry x="65.24" y="390" width="60" height="30" as="geometry" />
        </mxCell>
        <mxCell id="hUhZdlzNuwEwYxPV-n_X-15" style="edgeStyle=orthogonalEdgeStyle;rounded=0;orthogonalLoop=1;jettySize=auto;html=1;entryX=0;entryY=0.5;entryDx=0;entryDy=0;" edge="1" parent="1" source="hUhZdlzNuwEwYxPV-n_X-6" target="hUhZdlzNuwEwYxPV-n_X-13">
          <mxGeometry relative="1" as="geometry" />
        </mxCell>
        <mxCell id="hUhZdlzNuwEwYxPV-n_X-6" value="AWS LoadBalancer" style="sketch=0;outlineConnect=0;fontColor=#232F3E;gradientColor=none;fillColor=#8C4FFF;strokeColor=none;dashed=0;verticalLabelPosition=bottom;verticalAlign=top;align=center;html=1;fontSize=12;fontStyle=0;aspect=fixed;pointerEvents=1;shape=mxgraph.aws4.network_load_balancer;" vertex="1" parent="1">
          <mxGeometry x="170" y="244" width="60" height="60" as="geometry" />
        </mxCell>
        <mxCell id="hUhZdlzNuwEwYxPV-n_X-13" value="" style="rounded=0;whiteSpace=wrap;html=1;fillColor=#dae8fc;strokeColor=#6c8ebf;" vertex="1" parent="1">
          <mxGeometry x="340" y="184" width="130" height="180" as="geometry" />
        </mxCell>
        <mxCell id="hUhZdlzNuwEwYxPV-n_X-10" value="" style="aspect=fixed;sketch=0;html=1;dashed=0;whitespace=wrap;verticalLabelPosition=bottom;verticalAlign=top;fillColor=#2875E2;strokeColor=#ffffff;points=[[0.005,0.63,0],[0.1,0.2,0],[0.9,0.2,0],[0.5,0,0],[0.995,0.63,0],[0.72,0.99,0],[0.5,1,0],[0.28,0.99,0]];shape=mxgraph.kubernetes.icon2;kubernetesLabel=1;prIcon=pod" vertex="1" parent="1">
          <mxGeometry x="380" y="189.5" width="50" height="48" as="geometry" />
        </mxCell>
        <mxCell id="hUhZdlzNuwEwYxPV-n_X-11" value="" style="aspect=fixed;sketch=0;html=1;dashed=0;whitespace=wrap;verticalLabelPosition=bottom;verticalAlign=top;fillColor=#2875E2;strokeColor=#ffffff;points=[[0.005,0.63,0],[0.1,0.2,0],[0.9,0.2,0],[0.5,0,0],[0.995,0.63,0],[0.72,0.99,0],[0.5,1,0],[0.28,0.99,0]];shape=mxgraph.kubernetes.icon2;kubernetesLabel=1;prIcon=pod" vertex="1" parent="1">
          <mxGeometry x="380" y="310.5" width="50" height="48" as="geometry" />
        </mxCell>
        <mxCell id="hUhZdlzNuwEwYxPV-n_X-12" value="" style="aspect=fixed;sketch=0;html=1;dashed=0;whitespace=wrap;verticalLabelPosition=bottom;verticalAlign=top;fillColor=#2875E2;strokeColor=#ffffff;points=[[0.005,0.63,0],[0.1,0.2,0],[0.9,0.2,0],[0.5,0,0],[0.995,0.63,0],[0.72,0.99,0],[0.5,1,0],[0.28,0.99,0]];shape=mxgraph.kubernetes.icon2;kubernetesLabel=1;prIcon=pod" vertex="1" parent="1">
          <mxGeometry x="380" y="248.5" width="50" height="48" as="geometry" />
        </mxCell>
        <mxCell id="hUhZdlzNuwEwYxPV-n_X-14" value="uswest1-swell-prod1 cluster" style="text;strokeColor=none;align=center;fillColor=none;html=1;verticalAlign=middle;whiteSpace=wrap;rounded=0;" vertex="1" parent="1">
          <mxGeometry x="335" y="358.5" width="140" height="70" as="geometry" />
        </mxCell>
        <mxCell id="hUhZdlzNuwEwYxPV-n_X-16" value="Before" style="text;strokeColor=none;align=center;fillColor=none;html=1;verticalAlign=middle;whiteSpace=wrap;rounded=0;fontSize=19;" vertex="1" parent="1">
          <mxGeometry x="70" y="100" width="55.24" height="30" as="geometry" />
        </mxCell>
        <mxCell id="hUhZdlzNuwEwYxPV-n_X-35" style="edgeStyle=orthogonalEdgeStyle;rounded=0;orthogonalLoop=1;jettySize=auto;html=1;entryX=0;entryY=0.5;entryDx=0;entryDy=0;" edge="1" parent="1" source="hUhZdlzNuwEwYxPV-n_X-18" target="hUhZdlzNuwEwYxPV-n_X-34">
          <mxGeometry relative="1" as="geometry" />
        </mxCell>
        <mxCell id="hUhZdlzNuwEwYxPV-n_X-18" value="&lt;div&gt;&lt;br&gt;&lt;/div&gt;&lt;div&gt;&lt;br&gt;&lt;/div&gt;" style="points=[];aspect=fixed;html=1;align=center;shadow=0;dashed=0;fillColor=#FF6A00;strokeColor=none;shape=mxgraph.alibaba_cloud.dns_domain_name_system;" vertex="1" parent="1">
          <mxGeometry x="75" y="530" width="30.49" height="30" as="geometry" />
        </mxCell>
        <mxCell id="hUhZdlzNuwEwYxPV-n_X-19" value="api.schema.io" style="text;strokeColor=none;align=center;fillColor=none;html=1;verticalAlign=middle;whiteSpace=wrap;rounded=0;" vertex="1" parent="1">
          <mxGeometry x="60.24000000000001" y="560" width="60" height="30" as="geometry" />
        </mxCell>
        <mxCell id="hUhZdlzNuwEwYxPV-n_X-36" style="edgeStyle=orthogonalEdgeStyle;rounded=0;orthogonalLoop=1;jettySize=auto;html=1;entryX=0;entryY=0.5;entryDx=0;entryDy=0;" edge="1" parent="1" source="hUhZdlzNuwEwYxPV-n_X-21" target="hUhZdlzNuwEwYxPV-n_X-34">
          <mxGeometry relative="1" as="geometry" />
        </mxCell>
        <mxCell id="hUhZdlzNuwEwYxPV-n_X-21" value="&lt;div&gt;&lt;br&gt;&lt;/div&gt;&lt;div&gt;&lt;br&gt;&lt;/div&gt;" style="points=[];aspect=fixed;html=1;align=center;shadow=0;dashed=0;fillColor=#FF6A00;strokeColor=none;shape=mxgraph.alibaba_cloud.dns_domain_name_system;" vertex="1" parent="1">
          <mxGeometry x="75" y="720" width="30.49" height="30" as="geometry" />
        </mxCell>
        <mxCell id="hUhZdlzNuwEwYxPV-n_X-22" value="api.swell.store" style="text;strokeColor=none;align=center;fillColor=none;html=1;verticalAlign=middle;whiteSpace=wrap;rounded=0;" vertex="1" parent="1">
          <mxGeometry x="60.24000000000001" y="750" width="60" height="30" as="geometry" />
        </mxCell>
        <mxCell id="hUhZdlzNuwEwYxPV-n_X-23" style="edgeStyle=orthogonalEdgeStyle;rounded=0;orthogonalLoop=1;jettySize=auto;html=1;entryX=0;entryY=0.5;entryDx=0;entryDy=0;" edge="1" parent="1" source="hUhZdlzNuwEwYxPV-n_X-24" target="hUhZdlzNuwEwYxPV-n_X-25">
          <mxGeometry relative="1" as="geometry" />
        </mxCell>
        <mxCell id="hUhZdlzNuwEwYxPV-n_X-24" value="AWS LoadBalancer" style="sketch=0;outlineConnect=0;fontColor=#232F3E;gradientColor=none;fillColor=#8C4FFF;strokeColor=none;dashed=0;verticalLabelPosition=bottom;verticalAlign=top;align=center;html=1;fontSize=12;fontStyle=0;aspect=fixed;pointerEvents=1;shape=mxgraph.aws4.network_load_balancer;" vertex="1" parent="1">
          <mxGeometry x="420" y="520" width="60" height="60" as="geometry" />
        </mxCell>
        <mxCell id="hUhZdlzNuwEwYxPV-n_X-25" value="" style="rounded=0;whiteSpace=wrap;html=1;fillColor=#dae8fc;strokeColor=#6c8ebf;" vertex="1" parent="1">
          <mxGeometry x="590" y="460" width="130" height="180" as="geometry" />
        </mxCell>
        <mxCell id="hUhZdlzNuwEwYxPV-n_X-26" value="" style="aspect=fixed;sketch=0;html=1;dashed=0;whitespace=wrap;verticalLabelPosition=bottom;verticalAlign=top;fillColor=#2875E2;strokeColor=#ffffff;points=[[0.005,0.63,0],[0.1,0.2,0],[0.9,0.2,0],[0.5,0,0],[0.995,0.63,0],[0.72,0.99,0],[0.5,1,0],[0.28,0.99,0]];shape=mxgraph.kubernetes.icon2;kubernetesLabel=1;prIcon=pod" vertex="1" parent="1">
          <mxGeometry x="630" y="465.5" width="50" height="48" as="geometry" />
        </mxCell>
        <mxCell id="hUhZdlzNuwEwYxPV-n_X-27" value="" style="aspect=fixed;sketch=0;html=1;dashed=0;whitespace=wrap;verticalLabelPosition=bottom;verticalAlign=top;fillColor=#2875E2;strokeColor=#ffffff;points=[[0.005,0.63,0],[0.1,0.2,0],[0.9,0.2,0],[0.5,0,0],[0.995,0.63,0],[0.72,0.99,0],[0.5,1,0],[0.28,0.99,0]];shape=mxgraph.kubernetes.icon2;kubernetesLabel=1;prIcon=pod" vertex="1" parent="1">
          <mxGeometry x="630" y="586.5" width="50" height="48" as="geometry" />
        </mxCell>
        <mxCell id="hUhZdlzNuwEwYxPV-n_X-28" value="" style="aspect=fixed;sketch=0;html=1;dashed=0;whitespace=wrap;verticalLabelPosition=bottom;verticalAlign=top;fillColor=#2875E2;strokeColor=#ffffff;points=[[0.005,0.63,0],[0.1,0.2,0],[0.9,0.2,0],[0.5,0,0],[0.995,0.63,0],[0.72,0.99,0],[0.5,1,0],[0.28,0.99,0]];shape=mxgraph.kubernetes.icon2;kubernetesLabel=1;prIcon=pod" vertex="1" parent="1">
          <mxGeometry x="630" y="524.5" width="50" height="48" as="geometry" />
        </mxCell>
        <mxCell id="hUhZdlzNuwEwYxPV-n_X-29" value="uswest1-swell-prod1 cluster" style="text;strokeColor=none;align=center;fillColor=none;html=1;verticalAlign=middle;whiteSpace=wrap;rounded=0;" vertex="1" parent="1">
          <mxGeometry x="585" y="629.5" width="140" height="70" as="geometry" />
        </mxCell>
        <mxCell id="hUhZdlzNuwEwYxPV-n_X-30" value="After" style="text;strokeColor=none;align=center;fillColor=none;html=1;verticalAlign=middle;whiteSpace=wrap;rounded=0;fontSize=19;" vertex="1" parent="1">
          <mxGeometry x="67.62" y="474.5" width="55.24" height="30" as="geometry" />
        </mxCell>
        <mxCell id="hUhZdlzNuwEwYxPV-n_X-38" value="90%" style="edgeStyle=orthogonalEdgeStyle;rounded=0;orthogonalLoop=1;jettySize=auto;html=1;" edge="1" parent="1" source="hUhZdlzNuwEwYxPV-n_X-34" target="hUhZdlzNuwEwYxPV-n_X-24">
          <mxGeometry relative="1" as="geometry" />
        </mxCell>
        <mxCell id="hUhZdlzNuwEwYxPV-n_X-49" value="5%" style="edgeStyle=orthogonalEdgeStyle;rounded=0;orthogonalLoop=1;jettySize=auto;html=1;entryX=0;entryY=0.5;entryDx=0;entryDy=0;" edge="1" parent="1" source="hUhZdlzNuwEwYxPV-n_X-34" target="hUhZdlzNuwEwYxPV-n_X-39">
          <mxGeometry relative="1" as="geometry" />
        </mxCell>
        <mxCell id="hUhZdlzNuwEwYxPV-n_X-34" value="" style="rounded=0;whiteSpace=wrap;html=1;shadow=0;fillColor=#e1d5e7;strokeColor=#9673a6;" vertex="1" parent="1">
          <mxGeometry x="160" y="530" width="132.63" height="210" as="geometry" />
        </mxCell>
        <mxCell id="hUhZdlzNuwEwYxPV-n_X-37" style="edgeStyle=orthogonalEdgeStyle;rounded=0;orthogonalLoop=1;jettySize=auto;html=1;" edge="1" parent="1" source="hUhZdlzNuwEwYxPV-n_X-31" target="hUhZdlzNuwEwYxPV-n_X-32">
          <mxGeometry relative="1" as="geometry" />
        </mxCell>
        <mxCell id="hUhZdlzNuwEwYxPV-n_X-31" value="HAProxy LB" style="sketch=0;outlineConnect=0;fontColor=#232F3E;gradientColor=none;fillColor=#8C4FFF;strokeColor=none;dashed=0;verticalLabelPosition=bottom;verticalAlign=top;align=center;html=1;fontSize=12;fontStyle=0;aspect=fixed;pointerEvents=1;shape=mxgraph.aws4.network_load_balancer;shadow=0;" vertex="1" parent="1">
          <mxGeometry x="196.32" y="540" width="60" height="60" as="geometry" />
        </mxCell>
        <mxCell id="hUhZdlzNuwEwYxPV-n_X-32" value="HAProxy LB&lt;br&gt;reserve" style="sketch=0;outlineConnect=0;fontColor=#232F3E;gradientColor=none;fillColor=#8C4FFF;strokeColor=none;dashed=0;verticalLabelPosition=bottom;verticalAlign=top;align=center;html=1;fontSize=12;fontStyle=0;aspect=fixed;pointerEvents=1;shape=mxgraph.aws4.network_load_balancer;shadow=0;" vertex="1" parent="1">
          <mxGeometry x="196.32" y="645" width="60" height="60" as="geometry" />
        </mxCell>
        <mxCell id="hUhZdlzNuwEwYxPV-n_X-39" value="" style="rounded=0;whiteSpace=wrap;html=1;fillColor=#dae8fc;strokeColor=#6c8ebf;" vertex="1" parent="1">
          <mxGeometry x="420" y="704.5" width="370" height="100" as="geometry" />
        </mxCell>
        <mxCell id="hUhZdlzNuwEwYxPV-n_X-40" value="" style="image;html=1;image=img/lib/clip_art/computers/Server_128x128.png" vertex="1" parent="1">
          <mxGeometry x="430" y="714.5" width="80" height="80" as="geometry" />
        </mxCell>
        <mxCell id="hUhZdlzNuwEwYxPV-n_X-42" value="swell-api-1" style="text;strokeColor=none;align=center;fillColor=none;html=1;verticalAlign=middle;whiteSpace=wrap;rounded=0;" vertex="1" parent="1">
          <mxGeometry x="440" y="774.5" width="60" height="30" as="geometry" />
        </mxCell>
        <mxCell id="hUhZdlzNuwEwYxPV-n_X-43" value="" style="image;html=1;image=img/lib/clip_art/computers/Server_128x128.png" vertex="1" parent="1">
          <mxGeometry x="520" y="714.5" width="80" height="80" as="geometry" />
        </mxCell>
        <mxCell id="hUhZdlzNuwEwYxPV-n_X-44" value="swell-api-1" style="text;strokeColor=none;align=center;fillColor=none;html=1;verticalAlign=middle;whiteSpace=wrap;rounded=0;" vertex="1" parent="1">
          <mxGeometry x="530" y="774.5" width="60" height="30" as="geometry" />
        </mxCell>
        <mxCell id="hUhZdlzNuwEwYxPV-n_X-45" value="" style="image;html=1;image=img/lib/clip_art/computers/Server_128x128.png" vertex="1" parent="1">
          <mxGeometry x="610" y="714.5" width="80" height="80" as="geometry" />
        </mxCell>
        <mxCell id="hUhZdlzNuwEwYxPV-n_X-46" value="swell-api-1" style="text;strokeColor=none;align=center;fillColor=none;html=1;verticalAlign=middle;whiteSpace=wrap;rounded=0;" vertex="1" parent="1">
          <mxGeometry x="620" y="774.5" width="60" height="30" as="geometry" />
        </mxCell>
        <mxCell id="hUhZdlzNuwEwYxPV-n_X-47" value="" style="image;html=1;image=img/lib/clip_art/computers/Server_128x128.png" vertex="1" parent="1">
          <mxGeometry x="700" y="714.5" width="80" height="80" as="geometry" />
        </mxCell>
        <mxCell id="hUhZdlzNuwEwYxPV-n_X-48" value="swell-api-1" style="text;strokeColor=none;align=center;fillColor=none;html=1;verticalAlign=middle;whiteSpace=wrap;rounded=0;" vertex="1" parent="1">
          <mxGeometry x="710" y="774.5" width="60" height="30" as="geometry" />
        </mxCell>
      </root>
    </mxGraphModel>
  </diagram>
</mxfile>
